{"title":"Wunderkinder.2011 [PAz]","uid":11336778,"size":1325803255,"categoryP":"video","categoryS":"movies","magnet":"?xt=urn:btih:53fb0c80cbb92a1384b84a24b30aff45e3cf2b21&amp;dn=Wunderkinder.2011+%5BPAz%5D&amp;tr=udp%3A%2F%2Ftracker.openbittorrent.com%3A80&amp;tr=udp%3A%2F%2Fopen.demonii.com%3A1337&amp;tr=udp%3A%2F%2Ftracker.coppersurfer.tk%3A6969&amp;tr=udp%3A%2F%2Fexodus.desync.com%3A6969","seeders":1,"leechers":1,"uploader":null,"files":4,"time":1414755333,"description":" Country: Germany\n Year: 2011\n Sound: German\n Subtitles: \n            English    (eng.SRT)\n            Spanish    (spa.srt)\n            Portuguese (pt-pt.srt)\n\n\n IMDB code: tt1710625\n IMDB rate: 6.8/10 (361)\n\nSet in 1941 during World War II in the Ukraine, the young and highly talented violinist Abrascha Kaplan and the no less gifted pianist Larissa Brodsky are celebrated as child prodigies of classical music. They play in all of Russia's great concert halls - before the party elite and even Stalin himself. Hanna, daughter of the German brewer Max Reich, is herself a talented violinist and wishes for nothing more than to be taught with the Russian &quot;Wunderkinder.&quot; Larissa and Abrascha are reluctant to accept the German girl until their teacher Irina Salmonova consents to teach Hanna - and a close friendship develop between the children. But when Hitler unexpectedly invades Russia, their friendship is put to a hard test.\n\nGeneral\nComplete name                            : Wunderkinder.2011 [PAz].avi\nFormat                                   : AVI\nFormat/Info                              : Audio Video Interleave\nFormat profile                           : OpenDML\nFile size                                : 1.23 GiB\nDuration                                 : 1h 40mn\nOverall bit rate                         : 1 759 Kbps\nWriting application                      : Lavf54.63.104\n\nVideo\nID                                       : 0\nFormat                                   : AVC\nFormat/Info                              : Advanced Video Codec\nFormat profile                           : &lt;a class=&quot;__cf_email__&quot; href=&quot;/cdn-cgi/l/email-protection&quot; data-cfemail=&quot;feb39f9790beb2cdd0cf&quot;&gt;[email&amp;#160;protected]&lt;/a&gt;&lt;script cf-hash='f9e31' type=&quot;text/javascript&quot;&gt;\n/* &lt;![CDATA[ */!function(){try{var t=&quot;currentScript&quot;in document?document.currentScript:function(){for(var t=document.getElementsByTagName(&quot;script&quot;),e=t.length;e--;)if(t[e].getAttribute(&quot;cf-hash&quot;))return t[e]}();if(t&amp;&amp;t.previousSibling){var e,r,n,i,c=t.previousSibling,a=c.getAttribute(&quot;data-cfemail&quot;);if(a){for(e=&quot;&quot;,r=parseInt(a.substr(0,2),16),n=2;a.length-n;n+=2)i=parseInt(a.substr(n,2),16)^r,e+=String.fromCharCode(i);e=document.createTextNode(e),c.parentNode.replaceChild(e,c)}}}catch(u){}}();/* ]]&gt; */&lt;/script&gt;\nFormat settings, CABAC                   : Yes\nFormat settings, ReFrames                : 1 frame\nCodec ID                                 : H264\nDuration                                 : 1h 40mn\nBit rate                                 : 1 500 Kbps\nWidth                                    : 1 280 pixels\nHeight                                   : 688 pixels\nDisplay aspect ratio                     : 1.85:1\nFrame rate mode                          : Variable\nFrame rate                               : 25.000 fps\nColor space                              : YUV\nChroma subsampling                       : 4:2:0\nBit depth                                : 8 bits\nScan type                                : Progressive\nBits/(Pixel*Frame)                       : 0.068\nStream size                              : 1.05 GiB (85%)\nWriting library                          : x264 core 129\n\nAudio\nID                                       : 1\nFormat                                   : AC-3\nFormat/Info                              : Audio Coding 3\nCodec ID                                 : 00001000-0000-0020-8000-00AA00389B71\nDuration                                 : 1h 40mn\nBit rate                                 : 256 Kbps\nChannel(s)                               : 6 channels\nChannel positions                        : Front: L C R, Back: L R, LFE\nSampling rate                            : 48.0 KHz\nBit depth                                : 16 bits\nCompression mode                         : Lossy\nStream size                              : 184 MiB (15%)\nInterleave, duration                     : 32 ms (0.80 video frame)","torrent":{"xt":"urn:btih:53fb0c80cbb92a1384b84a24b30aff45e3cf2b21","amp;dn":"Wunderkinder.2011+%5BPAz%5D","amp;tr":["udp%3A%2F%2Ftracker.openbittorrent.com%3A80","udp%3A%2F%2Fopen.demonii.com%3A1337","udp%3A%2F%2Ftracker.coppersurfer.tk%3A6969","udp%3A%2F%2Fexodus.desync.com%3A6969"],"infoHash":"53fb0c80cbb92a1384b84a24b30aff45e3cf2b21","infoHashBuffer":{"type":"Buffer","data":[83,251,12,128,203,185,42,19,132,184,74,36,179,10,255,69,227,207,43,33]},"announce":[],"urlList":[]}}